<svg xmlns="http://www.w3.org/2000/svg" version="1.1" xmlns:xlink="http://www.w3.org/1999/xlink" xmlns:svgjs="http://svgjs.dev/svgjs" width="2000" height="1247" viewBox="0 0 2000 1247"><g transform="matrix(1,0,0,1,-1.2121212121212466,0.6159271255060048)"><svg viewBox="0 0 396 247" data-background-color="#edbbba" preserveAspectRatio="xMidYMid meet" height="1247" width="2000" xmlns="http://www.w3.org/2000/svg" xmlns:xlink="http://www.w3.org/1999/xlink"><defs></defs><g id="tight-bounds" transform="matrix(1,0,0,1,0.2400000000000091,-0.09999999999999432)"><svg viewBox="0 0 395.52 247.2" height="247.2" width="395.52"><g><svg></svg></g><g><svg viewBox="0 0 395.52 247.2" height="247.2" width="395.52"><g><path d="M181.165 218.441l-32.842 28.781-44.42-35.885c-3.704 0.404-7.503 0.606-11.4 0.606-17.872 0-33.693-4.139-47.464-12.418-13.81-8.24-24.602-20.038-32.378-35.395-1.791-3.538-3.376-7.235-4.755-11.091h56.343c2.114 3.446 4.588 6.331 7.423 8.654 5.57 4.603 12.514 6.905 20.831 6.905 7.93 0 14.622-2.302 20.077-6.905 2.796-2.323 5.251-5.208 7.365-8.654l56.575 0c-1.379 3.856-2.964 7.553-4.755 11.091-5.912 11.62-13.508 21.202-22.786 28.747zM12.603 47.965c7.737-15.357 18.471-27.194 32.204-35.511 13.733-8.317 29.535-12.475 47.406-12.476 17.64 0 33.345 4.158 47.116 12.476 13.733 8.317 24.506 20.154 32.32 35.511 6.749 13.199 10.598 28.597 11.546 46.196l-53.959 0c-0.517-9.317-1.911-17.366-4.181-24.147-2.901-8.82-7.118-15.435-12.649-19.844-5.532-4.449-12.263-6.673-20.193-6.673-8.317 0-15.241 2.224-20.773 6.673-5.532 4.41-9.651 11.025-12.359 19.844-2.121 6.78-3.423 14.829-3.906 24.147l-53.948 0c0.935-17.599 4.726-32.998 11.376-46.196zM226.366 2.822h82.395c16.17 0 30.154 2.398 41.952 7.195 11.798 4.758 20.908 11.76 27.33 21.005 6.421 9.245 9.632 20.715 9.632 34.408 0 11.456-1.577 21.032-4.73 28.731l-62.302 0c0.771-0.281 1.511-0.593 2.218-0.937 3.946-1.895 6.886-4.7 8.82-8.414 1.934-3.752 2.901-8.356 2.901-13.809 0-7.93-2.186-14.119-6.557-18.568-4.333-4.449-10.754-6.673-19.264-6.673h-29.302l0 48.401-53.093 0zM394.522 206.836v2.263h-56.98l-27.619-56.06 57.156 0zM279.459 209.099h-53.093l0-56.06h53.093z" fill="#ffffff" data-fill-palette-color="tertiary"></path></g><g transform="matrix(1,0,0,1,0,100.81165786694825)"><svg viewBox="0 0 395.52 45.57668426610348" height="45.57668426610348" width="395.52"><g><svg viewBox="0 0 395.52 45.57668426610348" height="45.57668426610348" width="395.52"><g><svg viewBox="0 0 395.52 45.57668426610348" height="45.57668426610348" width="395.52"><g><svg viewBox="0 0 395.52 45.57668426610348" height="45.57668426610348" width="395.52"><g><svg viewBox="0 0 395.52 45.57668426610348" height="45.57668426610348" width="395.52"><g><svg viewBox="0 0 395.52 45.57668426610348" height="45.57668426610348" width="395.52"><g transform="matrix(1,0,0,1,0,0)"><svg width="395.52" viewBox="1.64 -36.06 369.89 42.63000000000001" height="45.57668426610348" data-palette-color="#374151"><path d="M22.58-6.42L32.69 1.61 27.03 6.57 17.09-1.46 22.58-6.42ZM33.08-18.29L33.08-17.24Q33.08-11.72 31.07-7.75 29.05-3.78 25.51-1.65 21.97 0.49 17.41 0.49L17.41 0.49Q12.79 0.49 9.23-1.65 5.66-3.78 3.65-7.75 1.64-11.72 1.64-17.24L1.64-17.24 1.64-18.29Q1.64-23.8 3.64-27.77 5.64-31.74 9.19-33.89 12.74-36.04 17.36-36.04L17.36-36.04Q21.92-36.04 25.48-33.89 29.03-31.74 31.05-27.77 33.08-23.8 33.08-18.29L33.08-18.29ZM23.78-17.24L23.78-18.33Q23.78-21.7 23.02-23.97 22.27-26.25 20.84-27.39 19.41-28.54 17.36-28.54L17.36-28.54Q15.21-28.54 13.78-27.39 12.35-26.25 11.65-23.97 10.94-21.7 10.94-18.33L10.94-18.33 10.94-17.24Q10.94-13.94 11.66-11.65 12.38-9.35 13.82-8.17 15.26-6.98 17.41-6.98L17.41-6.98Q19.46-6.98 20.87-8.17 22.29-9.35 23.03-11.65 23.78-13.94 23.78-17.24L23.78-17.24ZM56.17-35.55L65.33-35.55 65.33-12.52Q65.33-8.33 63.58-5.42 61.84-2.51 58.68-1.01 55.52 0.49 51.24 0.49L51.24 0.49Q47.02 0.49 43.81-1.01 40.6-2.51 38.82-5.42 37.03-8.33 37.03-12.52L37.03-12.52 37.03-35.55 46.24-35.55 46.24-12.52Q46.24-10.5 46.8-9.25 47.36-8.01 48.48-7.45 49.61-6.88 51.24-6.88L51.24-6.88Q52.9-6.88 53.99-7.45 55.08-8.01 55.62-9.25 56.17-10.5 56.17-12.52L56.17-12.52 56.17-35.55ZM80.05-35.55L80.05 0 70.92 0 70.92-35.55 80.05-35.55ZM105.66-12.23L114.79-12.23Q114.64-8.47 112.79-5.6 110.93-2.73 107.65-1.12 104.36 0.49 99.92 0.49L99.92 0.49Q95.11 0.49 91.69-1.62 88.27-3.74 86.48-7.67 84.68-11.6 84.68-17.04L84.68-17.04 84.68-18.48Q84.68-23.95 86.56-27.88 88.44-31.81 91.83-33.94 95.21-36.06 99.77-36.06L99.77-36.06Q104.51-36.06 107.74-34.35 110.98-32.64 112.75-29.69 114.52-26.73 114.84-23.02L114.84-23.02 105.71-23.02Q105.66-25.81 104.36-27.17 103.07-28.54 99.77-28.54L99.77-28.54Q97.8-28.54 96.51-27.6 95.23-26.66 94.61-24.48 93.99-22.29 93.99-18.53L93.99-18.53 93.99-17.04Q93.99-13.26 94.54-11.07 95.09-8.89 96.39-7.96 97.7-7.03 99.92-7.03L99.92-7.03Q101.75-7.03 103.02-7.57 104.29-8.11 104.96-9.25 105.63-10.4 105.66-12.23L105.66-12.23ZM127.68-35.55L127.68 0 118.5 0 118.5-35.55 127.68-35.55ZM148.79-35.55L135.2-17.16 127.07-8.18 125.36-16.89 130.41-24.98 137.49-35.55 148.79-35.55ZM137.86 0L129.31-15.6 136.44-20.95 148.7 0 137.86 0ZM163.02-35.55L177.23-35.55Q181.41-35.55 184.46-34.31 187.51-33.08 189.17-30.69 190.83-28.3 190.83-24.76L190.83-24.76Q190.83-21.58 189.89-19.52 188.95-17.46 187.28-16.15 185.61-14.84 183.36-13.92L183.36-13.92 180.36-12.08 168.76-12.08 168.71-19.48 177.13-19.48Q178.65-19.48 179.66-19.97 180.67-20.46 181.17-21.42 181.67-22.39 181.67-23.8L181.67-23.8Q181.67-25.85 180.55-27 179.43-28.15 177.23-28.15L177.23-28.15 172.18-28.15 172.18 0 163.02 0 163.02-35.55ZM182.19 0L174.47-15.65 184.19-15.72 192-0.39 192 0 182.19 0ZM220.34-7.37L220.34 0 201.57 0 201.57-7.37 220.34-7.37ZM204.82-35.55L204.82 0 195.64 0 195.64-35.55 204.82-35.55ZM217.93-21.78L217.93-14.67 201.57-14.67 201.57-21.78 217.93-21.78ZM220.42-35.55L220.42-28.15 201.57-28.15 201.57-35.55 220.42-35.55ZM238.43-9.16L245.49-35.55 255.74-35.55 243.88 0 237.26 0 238.43-9.16ZM232.28-35.55L239.29-9.16 240.53 0 233.87 0 222.07-35.55 232.28-35.55ZM267.75-35.55L267.75 0 258.62 0 258.62-35.55 267.75-35.55ZM298.05-7.37L298.05 0 279.27 0 279.27-7.37 298.05-7.37ZM282.52-35.55L282.52 0 273.34 0 273.34-35.55 282.52-35.55ZM295.63-21.78L295.63-14.67 279.27-14.67 279.27-21.78 295.63-21.78ZM298.12-35.55L298.12-28.15 279.27-28.15 279.27-35.55 298.12-35.55ZM309.45-1.68L316.43-35.55 320.85-35.55 323.53-34.11 316.09 0 311.15 0 309.45-1.68ZM308.3-35.55L314.16-1.32 312.28 0 306.59 0 299.19-35.55 308.3-35.55ZM326.58-1.51L332.42-35.55 341.48-35.55 334.1 0 328.41 0 326.58-1.51ZM324.17-35.55L331.34-1.46 329.54 0 324.61 0 316.99-34.16 319.77-35.55 324.17-35.55ZM371.53-7.37L371.53 0 345.7 0 345.7-7.37 371.53-7.37ZM371.41-30.79L350.29 0 343.65 0 343.65-4.88 365.03-35.55 371.41-35.55 371.41-30.79ZM368.48-35.55L368.48-28.15 343.43-28.15 343.43-35.55 368.48-35.55Z" opacity="1" transform="matrix(1,0,0,1,0,0)" fill="#ffffff" class="undefined-text-0" data-fill-palette-color="primary" id="text-0"></path></svg></g></svg></g></svg></g></svg></g></svg></g></svg></g></svg></g></svg></g></svg><rect width="395.52" height="247.2" fill="none" stroke="none" visibility="hidden"></rect></g></svg></g></svg>