<svg xmlns="http://www.w3.org/2000/svg" version="1.1" xmlns:xlink="http://www.w3.org/1999/xlink" xmlns:svgjs="http://svgjs.dev/svgjs" width="128" height="128" viewBox="0 0 128 128"><g transform="matrix(0.8046875,0,0,0.8046875,12.333870967741937,12.333870967741937)"><svg viewBox="0 0 155 155" data-background-color="#edbbba" preserveAspectRatio="xMidYMid meet" height="128" width="128" xmlns="http://www.w3.org/2000/svg" xmlns:xlink="http://www.w3.org/1999/xlink"><defs></defs><g id="tight-bounds" transform="matrix(1,0,0,1,0.25,0.25)"><svg viewBox="0 0 154.5 154.5" height="154.5" width="154.5"><g><svg></svg></g><g><svg viewBox="0 0 154.5 154.5" height="154.5" width="154.5"><g><path d="M0 0" fill="#374151" data-fill-palette-color="tertiary"></path></g><g transform="matrix(1,0,0,1,29.509500000000003,45.71814061317184)"><svg viewBox="0 0 95.481 63.06371877365632" height="63.06371877365632" width="95.481"><g><svg viewBox="0 0 95.481 63.06371877365632" height="63.06371877365632" width="95.481"><g><svg viewBox="0 0 95.481 63.06371877365632" height="63.06371877365632" width="95.481"><g><svg viewBox="0 0 95.481 63.06371877365632" height="63.06371877365632" width="95.481"><g><svg viewBox="0 0 95.481 63.06371877365632" height="63.06371877365632" width="95.481"><g transform="matrix(1,0,0,1,0,0)"><svg width="95.481" viewBox="1.64 -36.04 64.5 42.61000000000001" height="63.06371877365632" data-palette-color="#374151"><path d="M22.58-6.42L32.69 1.61 27.03 6.57 17.09-1.46 22.58-6.42ZM33.08-18.29L33.08-17.24Q33.08-11.72 31.07-7.75 29.05-3.78 25.51-1.65 21.97 0.49 17.41 0.49L17.41 0.49Q12.79 0.49 9.23-1.65 5.66-3.78 3.65-7.75 1.64-11.72 1.64-17.24L1.64-17.24 1.64-18.29Q1.64-23.8 3.64-27.77 5.64-31.74 9.19-33.89 12.74-36.04 17.36-36.04L17.36-36.04Q21.92-36.04 25.48-33.89 29.03-31.74 31.05-27.77 33.08-23.8 33.08-18.29L33.08-18.29ZM23.78-17.24L23.78-18.33Q23.78-21.7 23.02-23.97 22.27-26.25 20.84-27.39 19.41-28.54 17.36-28.54L17.36-28.54Q15.21-28.54 13.78-27.39 12.35-26.25 11.65-23.97 10.94-21.7 10.94-18.33L10.94-18.33 10.94-17.24Q10.94-13.94 11.66-11.65 12.38-9.35 13.82-8.17 15.26-6.98 17.41-6.98L17.41-6.98Q19.46-6.98 20.87-8.17 22.29-9.35 23.03-11.65 23.78-13.94 23.78-17.24L23.78-17.24ZM37.16-35.55L51.36-35.55Q55.54-35.55 58.59-34.31 61.64-33.08 63.3-30.69 64.96-28.3 64.96-24.76L64.96-24.76Q64.96-21.58 64.02-19.52 63.08-17.46 61.41-16.15 59.74-14.84 57.49-13.92L57.49-13.92 54.49-12.08 42.89-12.08 42.84-19.48 51.27-19.48Q52.78-19.48 53.79-19.97 54.81-20.46 55.31-21.42 55.81-22.39 55.81-23.8L55.81-23.8Q55.81-25.85 54.69-27 53.56-28.15 51.36-28.15L51.36-28.15 46.31-28.15 46.31 0 37.16 0 37.16-35.55ZM56.32 0L48.61-15.65 58.32-15.72 66.14-0.39 66.14 0 56.32 0Z" opacity="1" transform="matrix(1,0,0,1,0,0)" fill="#374151" class="undefined-text-0" data-fill-palette-color="primary" id="text-0"></path></svg></g></svg></g></svg></g></svg></g></svg></g></svg></g></svg></g></svg><rect width="154.5" height="154.5" fill="none" stroke="none" visibility="hidden"></rect></g></svg></g></svg>